<svg xmlns="http://www.w3.org/2000/svg" viewBox="0 0 48 48">
    <defs>
        <linearGradient id="baseGrad" x1="0%" y1="0%" x2="100%" y2="100%">
            <stop offset="0%" stop-color="#ff5e5e"/>
            <stop offset="50%" stop-color="#e60000"/>
            <stop offset="100%" stop-color="#8a0000"/>
        </linearGradient>

        <linearGradient id="highlight" x1="0%" y1="0%" x2="0%" y2="100%">
            <stop offset="0%" stop-color="#ffffff" stop-opacity="0.7"/>
            <stop offset="100%" stop-color="#ffffff" stop-opacity="0.0"/>
        </linearGradient>

        <filter id="shadow" x="-20%" y="-20%" width="140%" height="140%">
            <feDropShadow dx="0" dy="3" stdDeviation="3" flood-color="#000000" flood-opacity="0.3"/>
        </filter>
    </defs>

    <g filter="url(#shadow)">
        <path d="M14 10 L24 20 L34 10 L38 14 L28 24 L38 34 L34 38 L24 28 L14 38 L10 34 L20 24 L10 14 Z"
              fill="url(#baseGrad)" />

        <path d="M14 10 L24 20 L34 10 L38 14 L28 24 L38 34 L34 38 L24 28 L14 38 L10 34 L20 24 L10 14 Z"
              fill="none"
              stroke="url(#highlight)"
              stroke-width="1.5" />
    </g>
</svg>