<svg xmlns="http://www.w3.org/2000/svg" viewBox="0 0 256 256" width="100%" height="100%" class="ide-cm-item-svg">
    <g transform="translate(1.4 1.4) scale(2.81 2.81)">
        <path d="M 73.538 35.162 l -52.548 1.952 c -1.739 0 -2.753 0.651 -3.232 2.323 L 6.85 76.754 c -0.451 1.586 -2.613 2.328 -4.117 2.328 h 0 C 1.23 79.082 0 77.852 0 76.349 l 0 -10.458 V 23.046 v -2.047 v -6.273 c 0 -2.103 1.705 -3.808 3.808 -3.808 h 27.056 c 1.01 0 1.978 0.401 2.692 1.115 l 7.85 7.85 c 0.714 0.714 1.683 1.115 2.692 1.115 H 69.73 c 2.103 0 3.808 1.705 3.808 3.808 v 1.301 C 73.538 26.106 73.538 35.162 73.538 35.162 z" style="fill: rgb(224,173,49);"/>
        <path d="M 2.733 79.082 L 2.733 79.082 c 1.503 0 2.282 -1.147 2.733 -2.733 l 10.996 -38.362 c 0.479 -1.672 2.008 -2.824 3.748 -2.824 h 67.379 c 1.609 0 2.765 1.546 2.311 3.09 L 79.004 75.279 c -0.492 1.751 -1.571 3.818 -3.803 3.803 C 75.201 79.082 2.733 79.082 2.733 79.082 z" style="fill: rgb(255,200,67);"/>
    </g>
</svg>